<svg width="24" height="24" viewBox="0 0 24 24" fill="none" xmlns="http://www.w3.org/2000/svg">
<path fill-rule="evenodd" clip-rule="evenodd" d="M5.63721 5.63699C6.02768 5.24641 6.02758 4.61324 5.637 4.22278C5.24642 3.83231 4.61325 3.83241 4.22279 4.22299C2.16061 6.2858 1.00214 9.08319 1.00214 12C1.00214 14.9168 2.16061 17.7142 4.22279 19.777C4.61325 20.1676 5.24642 20.1677 5.637 19.7772C6.02758 19.3867 6.02768 18.7536 5.63721 18.363C3.94997 16.6752 3.00214 14.3865 3.00214 12C3.00214 9.61352 3.94997 7.32474 5.63721 5.63699ZM19.7772 4.22299C19.3867 3.83241 18.7536 3.83231 18.363 4.22278C17.9724 4.61324 17.9723 5.24641 18.3628 5.63699C20.05 7.32474 20.9979 9.61352 20.9979 12C20.9979 14.3865 20.05 16.6752 18.3628 18.363C17.9723 18.7536 17.9724 19.3867 18.363 19.7772C18.7536 20.1677 19.3867 20.1676 19.7772 19.777C21.8394 17.7142 22.9979 14.9168 22.9979 12C22.9979 9.08319 21.8394 6.2858 19.7772 4.22299ZM8.46671 8.45749C8.85746 8.06719 8.85781 7.43402 8.4675 7.04328C8.07719 6.65254 7.44403 6.65219 7.05329 7.04249C6.40245 7.6926 5.88614 8.46462 5.53387 9.31441C5.1816 10.1642 5.00028 11.0751 5.00028 11.995C5.00028 12.9149 5.1816 13.8258 5.53387 14.6756C5.88614 15.5254 6.40245 16.2974 7.05329 16.9475C7.44403 17.3378 8.07719 17.3374 8.4675 16.9467C8.85781 16.556 8.85746 15.9228 8.46671 15.5325C8.00183 15.0681 7.63304 14.5167 7.38142 13.9097C7.12979 13.3027 7.00028 12.6521 7.00028 11.995C7.00028 11.3379 7.12979 10.6873 7.38142 10.0803C7.63304 9.4733 8.00183 8.92186 8.46671 8.45749ZM16.9467 7.05249C16.556 6.66219 15.9228 6.66254 15.5325 7.05328C15.1422 7.44402 15.1425 8.07719 15.5333 8.46749C15.9982 8.93186 16.367 9.4833 16.6186 10.0903C16.8702 10.6973 16.9997 11.3479 16.9997 12.005C16.9997 12.6621 16.8702 13.3127 16.6186 13.9197C16.367 14.5267 15.9982 15.0781 15.5333 15.5425C15.1425 15.9328 15.1422 16.566 15.5325 16.9567C15.9228 17.3474 16.556 17.3478 16.9467 16.9575C17.5975 16.3074 18.1139 15.5354 18.4661 14.6856C18.8184 13.8358 18.9997 12.9249 18.9997 12.005C18.9997 11.0851 18.8184 10.1742 18.4661 9.32441C18.1139 8.47462 17.5975 7.7026 16.9467 7.05249ZM11 12C11 11.4477 11.4477 11 12 11C12.5523 11 13 11.4477 13 12C13 12.5523 12.5523 13 12 13C11.4477 13 11 12.5523 11 12ZM12 9C10.3431 9 9 10.3431 9 12C9 13.6569 10.3431 15 12 15C13.6569 15 15 13.6569 15 12C15 10.3431 13.6569 9 12 9Z" fill="white"/>
</svg>
